<svg width="8" height="14" viewBox="0 0 8 14" fill="none" xmlns="http://www.w3.org/2000/svg">
<path d="M0.292875 0.292818C0.105385 0.480348 5.81741e-05 0.734669 5.81741e-05 0.999849C5.81741e-05 1.26503 0.105385 1.51935 0.292875 1.70688L5.24288 6.65688L0.292875 11.6069C0.116446 11.7964 0.0204062 12.047 0.0249634 12.3059C0.0295205 12.5647 0.134319 12.8118 0.31731 12.995C0.500301 13.1782 0.747217 13.2832 1.0061 13.2881C1.26499 13.2929 1.51566 13.1972 1.70538 13.0209L7.36319 7.36469C7.55068 7.17716 7.65601 6.92284 7.65601 6.65766C7.65601 6.39248 7.55068 6.13816 7.36319 5.95063L1.70694 0.292818C1.51941 0.105327 1.26509 0 0.999907 0C0.734727 0 0.480405 0.105327 0.292875 0.292818Z" fill="white"/>
</svg>
